<svg id="Capa_1" enable-background="new 0 0 512 512" height="512" viewBox="0 0 512 512" width="512" xmlns="http://www.w3.org/2000/svg"><g><path d="m421.006 0c-9.777 0-18.114 6.271-21.21 15h-121.296v-7.5c0-4.142-3.357-7.5-7.5-7.5h-30c-4.143 0-7.5 3.358-7.5 7.5v7.5h-121.296c-3.096-8.729-11.433-15-21.21-15-12.406 0-22.5 10.093-22.5 22.5s10.094 22.5 22.5 22.5c9.777 0 18.114-6.271 21.21-15h121.296v7.5c0 4.142 3.357 7.5 7.5 7.5h30c4.143 0 7.5-3.358 7.5-7.5v-7.5h121.296c3.096 8.729 11.433 15 21.21 15 12.406 0 22.5-10.093 22.5-22.5s-10.094-22.5-22.5-22.5zm-330.012 30c-4.136 0-7.5-3.364-7.5-7.5s3.364-7.5 7.5-7.5 7.5 3.364 7.5 7.5-3.364 7.5-7.5 7.5zm172.506 0h-15v-15h15zm157.506 0c-4.136 0-7.5-3.364-7.5-7.5s3.364-7.5 7.5-7.5 7.5 3.364 7.5 7.5-3.364 7.5-7.5 7.5z"/><path d="m382.536 260.812-106.955-189.395c-4.003-7.042-11.507-11.417-19.581-11.417-8.083 0-15.585 4.378-19.578 11.426l.044.025c-.437.669-107.002 189.361-107.002 189.361-1.043 1.846-1.256 4.048-.585 6.06l42.439 127.317c-7.577 3.625-12.824 11.367-12.824 20.312 0 7.885 4.081 14.831 10.237 18.85l-29.737 39.649c-6.771 9.029-10.5 20.215-10.5 31.5 0 4.142 3.357 7.5 7.5 7.5h240c4.143 0 7.5-3.358 7.5-7.5 0-11.285-3.729-22.472-10.499-31.5l-29.738-39.65c6.157-4.019 10.237-10.965 10.237-18.85 0-8.944-5.246-16.687-12.823-20.312l42.45-127.316c.671-2.012.458-4.213-.585-6.06zm-119.036-26.312v60c0 4.136-3.364 7.5-7.5 7.5s-7.5-3.364-7.5-7.5v-60c0-4.136 3.364-7.5 7.5-7.5s7.5 3.364 7.5 7.5zm104.228 262.5h-223.466c1.112-5.41 3.409-10.569 6.732-15l33.75-45h142.5l33.751 45c3.323 4.431 5.62 9.59 6.733 15zm-42.139-105h-114.595c-4.143 0-7.5 3.358-7.5 7.5s3.357 7.5 7.5 7.5h119.827c.098.002.199.002.298.001 4.078.066 7.375 3.405 7.375 7.499 0 4.136-3.364 7.5-7.499 7.5h-150.001c-4.136 0-7.5-3.364-7.5-7.5s3.364-7.5 7.5-7.5c2.411 0 4.675-1.159 6.084-3.115 1.41-1.956 1.794-4.47 1.031-6.757l-43.947-131.84c12.677-22.446 94.497-167.326 104.338-184.746v132.748c-8.729 3.096-15 11.433-15 21.21v60c0 12.407 10.094 22.5 22.5 22.5s22.5-10.093 22.5-22.5v-60c0-9.777-6.271-18.114-15-21.21v-132.763l104.337 184.761z"/></g></svg>