<svg id="Capa_1" enable-background="new 0 0 512 512" height="512" viewBox="0 0 512 512" width="512" xmlns="http://www.w3.org/2000/svg"><g><path d="m301 181h151v30h-151z"/><path d="m301 241h151v30h-151z"/><path d="m361 0h-300v219.787l-19.394-19.394-21.213 21.213 55.607 55.607 55.606-55.606-21.213-21.213-19.393 19.393v-189.797h240v31.01h-150v240h-181v151h91v30h-30v30h300v-98.787l19.394 19.394 21.213-21.213-55.607-55.607-55.606 55.606 21.213 21.213 19.393-19.393v68.787h-210v-30h90v-121h301v-270h-151zm-180 422h-151v-91h151zm301-121h-271v-150.01h271zm0-210.01v30.01h-271v-30.01z"/><path d="m241 181h30v30h-30z"/><path d="m241 241h30v30h-30z"/></g></svg>