<svg xmlns="http://www.w3.org/2000/svg" viewBox="0 0 10.46 10.21"><defs><style>.cls-1{fill:#0d0c33;}</style></defs><g id="Capa_2" data-name="Capa 2"><g id="Capa_3" data-name="Capa 3"><path class="cls-1" d="M6.21,7.55c.25,0,.51-.09.76-.16A2.22,2.22,0,0,0,8,6.73,1.92,1.92,0,0,0,8.42,6a3.33,3.33,0,0,0,.12-1.33,1.91,1.91,0,0,0-.47-1s0-.07,0-.09A1.71,1.71,0,0,0,8,2.38c-.07-.23-.12-.27-.36-.21s-.43.15-.63.24-.3.17-.45.25a.18.18,0,0,1-.14,0A5.14,5.14,0,0,0,5,2.54a4,4,0,0,0-1,.15.21.21,0,0,1-.19,0,3.34,3.34,0,0,0-1.05-.48h0c-.24,0-.3,0-.37.21a1.75,1.75,0,0,0,0,1.13.1.1,0,0,1,0,.09,1.84,1.84,0,0,0-.46.95,3.83,3.83,0,0,0,0,.68,2.8,2.8,0,0,0,.23,1,1.85,1.85,0,0,0,1,1,3.68,3.68,0,0,0,1.08.29h0c-.08.14-.16.28-.23.42a.48.48,0,0,0,0,.17.15.15,0,0,1-.13.16,1.27,1.27,0,0,1-.88,0,1,1,0,0,1-.5-.45,1.21,1.21,0,0,0-.51-.49.7.7,0,0,0-.43-.09c-.13,0-.16.07-.07.18a.74.74,0,0,0,.13.12,1.42,1.42,0,0,1,.56.69,2.06,2.06,0,0,0,.17.33A1,1,0,0,0,3,9a2.6,2.6,0,0,0,.88,0h.06v.08c0,.28,0,.56,0,.84s-.17.36-.41.28a5.17,5.17,0,0,1-1.65-.93,5.35,5.35,0,0,1-1-1.09A5.16,5.16,0,0,1,0,4.68,5,5,0,0,1,1.08,2a5.07,5.07,0,0,1,3-1.91A5.08,5.08,0,0,1,7.54.54a5.22,5.22,0,0,1,2.8,5.78A5,5,0,0,1,9,8.84a5,5,0,0,1-2,1.31l-.15,0a.25.25,0,0,1-.33-.27V8.55a1.55,1.55,0,0,0-.12-.68C6.35,7.76,6.27,7.65,6.21,7.55Z"/></g></g></svg>