<svg xmlns="http://www.w3.org/2000/svg" viewBox="0 0 9.54 9.54"><defs><style>.cls-1{fill:#0d0c33;}</style></defs><g id="Capa_2" data-name="Capa 2"><g id="Capa_3" data-name="Capa 3"><path class="cls-1" d="M2.79,0h4A2.85,2.85,0,0,1,8.17.48,2.85,2.85,0,0,1,9.42,2.19a5.79,5.79,0,0,1,.12.6v4c0,.09,0,.18,0,.27A2.93,2.93,0,0,1,8.43,8.87a3,3,0,0,1-1.94.67H3.11a3.9,3.9,0,0,1-.59,0A2.85,2.85,0,0,1,.86,8.64,2.93,2.93,0,0,1,0,6.49V3A3,3,0,0,1,.32,1.63,3,3,0,0,1,2.19.11C2.39.06,2.59,0,2.79,0ZM.89,4.76c0,.58,0,1.17,0,1.75A2.52,2.52,0,0,0,.94,7,2.08,2.08,0,0,0,3,8.64h3.5A1.83,1.83,0,0,0,7,8.59,2.06,2.06,0,0,0,8.64,6.52c0-1.17,0-2.33,0-3.5a2.42,2.42,0,0,0,0-.47A2.08,2.08,0,0,0,6.54.9H3a2,2,0,0,0-.87.19A2,2,0,0,0,.9,3C.89,3.6.89,4.18.89,4.76Z"/><path class="cls-1" d="M4.78,2.38A2.39,2.39,0,1,1,2.39,4.75,2.39,2.39,0,0,1,4.78,2.38Zm0,.9A1.49,1.49,0,1,0,6.26,4.77,1.49,1.49,0,0,0,4.77,3.28Z"/><path class="cls-1" d="M7.34,2.52a.32.32,0,1,1,0-.63.32.32,0,0,1,.32.32A.31.31,0,0,1,7.34,2.52Z"/></g></g></svg>