<svg xmlns="http://www.w3.org/2000/svg" viewBox="0 0 11.79 11.79"><defs><style>.cls-1{fill:#0d0c33;}</style></defs><g id="Capa_2" data-name="Capa 2"><g id="Capa_3" data-name="Capa 3"><path class="cls-1" d="M0,3.68H2.63v8.11H0Z"/><path class="cls-1" d="M0,1.13A2.34,2.34,0,0,1,.13.73,1.27,1.27,0,0,1,1.59,0a1.27,1.27,0,0,1,1,1.32A1.29,1.29,0,0,1,0,1.51a.14.14,0,0,0,0-.06Z"/><path class="cls-1" d="M6.32,3.69V5.2c.2-.21.38-.41.58-.59a3.2,3.2,0,0,1,2.36-.92A2.63,2.63,0,0,1,11.78,6.3c0,1.8,0,3.61,0,5.41,0,0,0,0,0,.07H9.15v-5A.92.92,0,0,0,7.85,6a3.58,3.58,0,0,0-1.06.83c-.14.15-.27.3-.4.47a.35.35,0,0,0-.07.2v4.3H3.69V3.69Z"/></g></g></svg>