<svg xmlns="http://www.w3.org/2000/svg" viewBox="0 0 48.82 48.82"><defs><style>.cls-1{fill:#fcb912;}.cls-2{fill:#111c27;}</style></defs><g id="Capa_2" data-name="Capa 2"><g id="Capa_1-2" data-name="Capa 1"><circle class="cls-1" cx="24.41" cy="24.41" r="24.41"/><path class="cls-2" d="M36.29,15.8A2.8,2.8,0,0,0,33.49,13H15.38a2.81,2.81,0,0,0,0,5.61H33.49A2.8,2.8,0,0,0,36.29,15.8Z"/><path class="cls-2" d="M36.29,33.91a2.8,2.8,0,0,0-2.8-2.8H15.38a2.8,2.8,0,0,0,0,5.6H33.49A2.8,2.8,0,0,0,36.29,33.91Z"/><path class="cls-2" d="M36.29,24.85a2.8,2.8,0,0,0-2.8-2.8H22.74a2.81,2.81,0,0,0,0,5.61H33.49A2.8,2.8,0,0,0,36.29,24.85Z"/><path class="cls-2" d="M15.28,22.05a2.78,2.78,0,0,0-2.78,2.78v0a2.78,2.78,0,1,0,5.56,0v0A2.79,2.79,0,0,0,15.28,22.05Z"/></g></g></svg>