<svg xmlns="http://www.w3.org/2000/svg" viewBox="0 0 273.81 233.89"><defs><style>.cls-1{fill:#f7df1e;}.cls-14,.cls-2{fill:#ea9f88;}.cls-3{fill:#011726;}.cls-4{fill:#2b110f;}.cls-5{fill:#1e050d;}.cls-6{fill:#edfbf3;}.cls-7{fill:#42210b;}.cls-8{fill:#e9edcc;}.cls-9{fill:#a67c52;}.cls-10{fill:#603813;}.cls-11{fill:#e27d75;}.cls-12{fill:#001e36;}.cls-13{fill:#080a0e;}.cls-14{stroke:#e27d75;stroke-miterlimit:10;stroke-width:0.31px;}.cls-15{fill:#bdccd4;}.cls-16{fill:#1a1a1a;}.cls-17{fill:#1e1114;}</style></defs><g id="Capa_2" data-name="Capa 2"><g id="Capa_3" data-name="Capa 3"><path class="cls-1" d="M99.28,200.06s-41.23,16.14-52.75-8.64c-3.24-7-3.46-14.9-1.8-22.33a55.8,55.8,0,0,1,8-18.69,48.37,48.37,0,0,1,13.86-13.59c6.06-3.9,13.21-6.13,20.17-7.89a108.88,108.88,0,0,1,15.83-2.81c13.35-1.33,17.18,3.38,22.15,15.81C139.76,179.47,99.28,200.06,99.28,200.06Z"/><path class="cls-2" d="M253.27,126.05a2.11,2.11,0,0,0,2.6,1.44l15.48-3.69a2.12,2.12,0,0,0,1.68-2.46l-9-37.63a2.11,2.11,0,0,0-2.6-1.44L246,86a2.12,2.12,0,0,0-1.68,2.46"/><path class="cls-3" d="M249.72,113.91c.07.32,1.18.34,2.46,0l16.79-4c1.28-.31,2.26-.82,2.18-1.14l-2.68-11.26c-.08-.32-1.19-.34-2.46,0l-16.8,4c-1.27.31-2.26.82-2.18,1.14"/><path class="cls-4" d="M242.2,77.74a22.74,22.74,0,0,0,2.7-4.18,34.76,34.76,0,0,0,3.92-9.11c.71-3,.78-6.3-1.39-8.57-3.14-3.3-9.07-2.75-13.48-3.5a29.62,29.62,0,0,1-9.12-2.87c-3.25-1.75-5.45-4.3-8-6.72a6.84,6.84,0,0,0-7.47-1.6c-3.16,1.29-3.39,4.8-2.94,7.38.83,4.8,4.64,8.2,9.49,9.71a22.73,22.73,0,0,0,7.38,1c2.8-.09,6.15-1.14,8.56.39s2.71,4.32,3,6.79a41.4,41.4,0,0,0,1.52,7.77c.65,2.07,2.32,6.33,5.47,3.89A4.32,4.32,0,0,0,242.2,77.74Z"/><polygon class="cls-5" points="258.5 57.72 230.14 35.69 236.1 33.12 260 51.69 258.5 57.72"/><polygon class="cls-5" points="242.5 29.82 238.49 34.98 257.95 50.1 261.08 46.06 242.5 29.82"/><path class="cls-6" d="M240.28,66.86,243.2,65l11.09-7L271,93.63s.61,1-1.25,1.92l-5.93,3.74-1.4.89-5.93,3.74c-1.66,1.28-2.27.32-2.27.32l-25-30.37Z"/><polyline class="cls-6" points="270.51 95.1 271.05 95.95 256.23 105.31 255.37 103.95 270.48 95.06"/><polygon class="cls-7" points="257.81 63.4 232.59 79.34 248.11 96.99 267.01 85.05 257.81 63.4"/><rect class="cls-8" x="226.8" y="65.46" width="30.34" height="1.87" rx="0.8" transform="translate(481.61 -7.95) rotate(147.42)"/><ellipse class="cls-9" cx="251.07" cy="80.8" rx="9.67" ry="7.77" transform="translate(-4 147.91) rotate(-32.58)"/><path class="cls-10" d="M256.75,78.29c-.12-.16-.25-.33-.38-.48a4.39,4.39,0,0,0-.75-.68,5.5,5.5,0,0,0-1.2-.69A6.66,6.66,0,0,0,253,76a5.77,5.77,0,0,0-1.76-.07,4,4,0,0,0-1.84.66,2.71,2.71,0,0,0-.67.68s0,0,0,0l.37,0c.39,0,.77-.08,1.16-.1a2.3,2.3,0,0,1,.93.18,5,5,0,0,1,1.58,1.06,6.57,6.57,0,0,0,1,.84,3.14,3.14,0,0,0,1,.42,7.42,7.42,0,0,0,1.69.25c.24,0,.49,0,.74,0a2.15,2.15,0,0,0-.07-.77c-.05-.16-.11-.31-.16-.47Z"/><path class="cls-10" d="M247.82,84.9a3,3,0,0,0,.24.26,2.15,2.15,0,0,0,.28.23s.08,0,.11,0,.23-.32.33-.5a5.54,5.54,0,0,0,.45-1.06,2.64,2.64,0,0,0,0-1.25,7,7,0,0,1-.12-.92,3.05,3.05,0,0,1,0-.52.19.19,0,0,0,0-.17l-.51-.64,0-.07c-.11.12-.22.24-.32.37a4.23,4.23,0,0,0-.79,1.83,3.71,3.71,0,0,0,0,1.59c0,.16.09.32.14.47Z"/><path class="cls-10" d="M257,80.84c-.29,0-.56,0-.82,0a7.59,7.59,0,0,1-2.45-.55,3.56,3.56,0,0,1-1-.65c-.29-.27-.58-.54-.88-.8a3.41,3.41,0,0,0-1.15-.67,2.14,2.14,0,0,0-.87-.05l-1.22.12h0c-.25,0-.19,0-.22.2a2.53,2.53,0,0,0,.28,1.43,4.37,4.37,0,0,0,1.42,1.57,6.19,6.19,0,0,0,2.47,1,5.58,5.58,0,0,0,2.23,0,3.75,3.75,0,0,0,1.59-.74,2.24,2.24,0,0,0,.61-.79Z"/><path class="cls-10" d="M251.89,82.58a6.76,6.76,0,0,1-2.17-1.07,1.93,1.93,0,0,0,0,.25l.15.91a3,3,0,0,1-.16,1.56A6.29,6.29,0,0,1,249,85.6s0,0,0,0l.27,0a2,2,0,0,0,1.18-.45,3.54,3.54,0,0,0,1.1-1.46A3.92,3.92,0,0,0,251.89,82.58Z"/><path class="cls-2" d="M236,81.6l0,0c3.17-2.58,7-3.14,8.55-1.24s.28,5.58-2.9,8.2v0c-1.56,1.22-4.13.8-5.71-1.12S234.48,82.87,236,81.6Z"/><path class="cls-11" d="M235.87,87.55a5.08,5.08,0,0,1-1.2-3.28,3.62,3.62,0,0,1,1.27-2.8l.12-.1,0,0c3.2-2.54,7-3,8.65-1.12a4,4,0,0,1,.35,4,10.53,10.53,0,0,1-3.28,4.43l-.12.1,0,0a3.56,3.56,0,0,1-2.06.63A5,5,0,0,1,235.87,87.55Zm5.86.81a10.1,10.1,0,0,0,3.07-4.19,3.72,3.72,0,0,0-.31-3.68c-1.5-1.82-5.24-1.26-8.33,1.26l-.12.1,0,0a3.3,3.3,0,0,0-1,2.45,4.76,4.76,0,0,0,1.12,3.08c1.49,1.81,3.95,2.3,5.49,1.1l.13-.1Z"/><path class="cls-2" d="M262.27,69.77l0,0c-3,2.47-6.69,3-8.19,1.18s-.27-5.35,2.78-7.85h0c1.49-1.16,4-.76,5.47,1.08S263.76,68.54,262.27,69.77Z"/><path class="cls-11" d="M253.92,71a3.88,3.88,0,0,1-.34-3.83A10.13,10.13,0,0,1,256.73,63l.12-.1v0c1.62-1.14,4.08-.62,5.57,1.19s1.54,4.51-.06,5.83l-.12.1,0,0a9.35,9.35,0,0,1-5.51,2.19A3.49,3.49,0,0,1,253.92,71Zm8.37-1.48c1.34-1.23,1.31-3.56-.1-5.28s-3.78-2.2-5.26-1.05l-.12.09h0a9.7,9.7,0,0,0-2.93,4,3.54,3.54,0,0,0,.29,3.52c1.44,1.75,5,1.21,8-1.2l.12-.1Z"/><path class="cls-2" d="M265.16,75.82l0,0c-3.5,1.76-7.19,1.5-8.26-.6s.89-5.28,4.39-7.08v0c1.71-.82,4,.1,5.12,2.22S266.87,74.94,265.16,75.82Z"/><path class="cls-11" d="M256.74,75.26c-1.12-2.18.88-5.45,4.46-7.29l.14-.07v0c1.82-.76,4.12.27,5.19,2.36A4.91,4.91,0,0,1,267,73.6,3.49,3.49,0,0,1,265.23,76l-.14.07,0,0a10.36,10.36,0,0,1-4.45,1.1C258.83,77.1,257.36,76.48,256.74,75.26Zm8.48.35a3.21,3.21,0,0,0,1.46-2.08,4.55,4.55,0,0,0-.42-3.11c-1-2-3.23-3-4.91-2.15l-.14.07h0c-3.34,1.76-5.22,4.78-4.19,6.79s4.64,2.25,8.05.52l.14-.07Z"/><path class="cls-2" d="M267.14,81.65v0c-3.74,1.17-7.34.3-8.05-1.94s1.74-5.07,5.49-6.26h0c1.82-.53,4,.77,4.68,3S269,81.06,267.14,81.65Z"/><path class="cls-11" d="M258.93,79.71A3.83,3.83,0,0,1,260,76a10,10,0,0,1,4.49-2.77l.15-.05v0c1.92-.45,4,.94,4.73,3.18a4.84,4.84,0,0,1-.1,3.34,3.48,3.48,0,0,1-2.12,2l-.15,0,0,0a10.81,10.81,0,0,1-3.14.48C261.43,82.28,259.45,81.34,258.93,79.71Zm8.31,1.73A3.17,3.17,0,0,0,269,79.63a4.54,4.54,0,0,0,.09-3.13c-.68-2.13-2.69-3.45-4.49-2.93l-.15.05h0a9.67,9.67,0,0,0-4.21,2.63,3.55,3.55,0,0,0-1,3.38c.68,2.15,4.21,3,7.85,1.84l.15,0Z"/><path class="cls-2" d="M267.19,87.05v0c-3.13.5-5.92-.61-6.23-2.5s2-3.86,5.14-4.39v0a3.55,3.55,0,0,1,1.1,6.9Z"/><path class="cls-11" d="M260.79,84.54a3.15,3.15,0,0,1,1.33-2.85A8.17,8.17,0,0,1,266.07,80h.16a3.49,3.49,0,0,1,3.43,3.13,3.94,3.94,0,0,1-.48,2.69,2.86,2.86,0,0,1-2,1.41l-.16,0v0a10.2,10.2,0,0,1-1.34.1C263.15,87.3,261.07,86.2,260.79,84.54Zm6.53,2.33a2.63,2.63,0,0,0,1.59-1.23,3.69,3.69,0,0,0,.44-2.48,3.15,3.15,0,0,0-3.23-2.86H266a7.87,7.87,0,0,0-3.68,1.62,2.85,2.85,0,0,0-1.22,2.56c.3,1.8,3,2.86,6.06,2.37l.15,0Z"/><path class="cls-2" d="M10.31,181.07a5.83,5.83,0,0,1,2.81-4.29,36.57,36.57,0,0,1-1.72-4.43,40.39,40.39,0,0,1-2.15-9c-.05-.54-.09-1.08-.1-1.63L18,158.6s4.12,13,4.12,13c-.07-.22,2.55-.81,2.78-.87a16,16,0,0,1,4.87-.63,14,14,0,0,1,4.89,1.13,12,12,0,0,1,6.2,6.68,11.71,11.71,0,0,1,.91,2.89c.07.48.32,2.69-.21,3l-.25.13.4.42v0c1.24,1.43.95,3.91-.81,5.52s-4.27,1.65-5.57.26A4.48,4.48,0,0,1,33,193.65a4.63,4.63,0,0,1-3.56.51A4.55,4.55,0,0,1,26.63,197a4.43,4.43,0,0,1-4.4-.61,3.68,3.68,0,0,1-2.65,2.1,3.57,3.57,0,0,1-3.53-1.07l-.08,0c-1.08.58-4.26-5.72-4.6-6.56a17.19,17.19,0,0,1-1.11-9.61C10.27,181.25,10.29,181.16,10.31,181.07Z"/><path class="cls-11" d="M16,197.56h0a.45.45,0,0,1-.38,0c-1.31-.47-4-5.8-4.34-6.61a17.36,17.36,0,0,1-1.11-9.65,2.56,2.56,0,0,1,.05-.27h0A5.92,5.92,0,0,1,13,176.74a33,33,0,0,1-1.56-4l-.13-.36a39.8,39.8,0,0,1-2.15-9c-.06-.58-.09-1.11-.1-1.63v-.06l9-3.19,0,.08s3.65,11.48,4.09,12.84a13.18,13.18,0,0,1,2.58-.75l.14,0a15.89,15.89,0,0,1,4.9-.64,14.29,14.29,0,0,1,4.92,1.13,14,14,0,0,1,7.15,9.64c0,.11.39,2.71-.26,3.06l-.15.08.33.35,0,.06h0c1.24,1.52.86,4-.87,5.57s-4.16,1.72-5.56.39A4.58,4.58,0,0,1,33,193.72a4.76,4.76,0,0,1-3.54.54,4.65,4.65,0,0,1-2.85,2.85,4.54,4.54,0,0,1-4.39-.55,3.79,3.79,0,0,1-2.67,2.05,4.38,4.38,0,0,1-.88.09A3.49,3.49,0,0,1,16,197.56Zm6.25-1.19a4.36,4.36,0,0,0,4.32.59,4.46,4.46,0,0,0,2.77-2.82l0-.08.08,0a4.57,4.57,0,0,0,3.49-.49,4.43,4.43,0,0,0,2.29-3.49v-.18l.12.14c1.32,1.39,3.77,1.27,5.47-.27s2-4,.8-5.41l0-.06h0l-.35-.36-.07-.08.34-.18c.42-.22.29-2.05.17-2.9a11.4,11.4,0,0,0-.9-2.87,11.86,11.86,0,0,0-6.16-6.64,13.68,13.68,0,0,0-4.86-1.12,15.57,15.57,0,0,0-4.85.63l-.14,0c-2.21.52-2.54.71-2.58.77v0l-.15.05h0L18,158.7l-8.73,3.1c0,.5,0,1,.1,1.56a38.86,38.86,0,0,0,2.14,9l.13.36a31.66,31.66,0,0,0,1.59,4.06l0,.07-.07,0a5.73,5.73,0,0,0-2.77,4.23h0a2.56,2.56,0,0,1-.05.27,17.24,17.24,0,0,0,1.11,9.56c.41,1,3,6.09,4.24,6.52a.38.38,0,0,0,.26,0l.13-.07,0,0a3.5,3.5,0,0,0,3.45,1.05,3.6,3.6,0,0,0,2.59-2.06l.05-.1Z"/><path class="cls-12" d="M248.79,119a21.52,21.52,0,0,1-2,6.86c-4.29,8.55-14.58,10.4-23.08,12-4.74.91-9.54,1.47-14.35,1.92l-1.15.11c-15.66,1.45-33,2.23-47.68-3.3.3,2.3-.3,4.16,0,6.46,19.49,5.45,40.88,9.47,61.24,9.11,10.16-.18,20.48-1.36,29.79-5.43,10.8-4.74,19.83-13.5,21.74-25.4a41.09,41.09,0,0,0,.34-9.53c-.25-3.18-1-6.24-1.46-9.38a2.24,2.24,0,0,0-2.91-2.06c-1.24.28-1.46,2.1-1.85,3.06a13.18,13.18,0,0,1-2.46,3.71,15.61,15.61,0,0,1-8.93,4.71,17.94,17.94,0,0,1-7-.2c.75.16-.14,6.28-.22,6.92Z"/><path class="cls-12" d="M25,153a21.86,21.86,0,0,1,2-6.86c4.29-8.55,14.58-10.4,23.08-12,4.74-.91,9.54-1.47,14.35-1.92l1.15-.11c15.66-1.45,33-2.22,47.68,3.3-.3-2.29.3-4.16,0-6.46-19.49-5.44-40.88-9.47-61.24-9.11-10.16.18-20.48,1.36-29.79,5.44C11.41,130,2.38,138.77.47,150.67a41,41,0,0,0-.34,9.52c.25,3.18,1,6.24,1.46,9.38a2.23,2.23,0,0,0,2.91,2.06c1.24-.28,1.46-2.09,1.86-3.06a12.75,12.75,0,0,1,2.45-3.7,15.56,15.56,0,0,1,8.93-4.72,17.94,17.94,0,0,1,7,.2c-.75-.16.14-6.28.22-6.92Z"/><path class="cls-1" d="M155.76,146.21a20.39,20.39,0,0,0,4.94.71,5,5,0,0,0,1.52-.36,2.69,2.69,0,0,0,.89-.6c2.23-2.29.45-7.39-1-11.64-.55-1.66-2-.64-2.91-2.13h6.08s5.1,8.82,3.52,16.38c-1,4.81-13.07,2.52-13.07,2.21Z"/><path class="cls-1" d="M111.78,125.23s8.16,9.57,4,14.86-6.81-1.26-6.81-1.26,3.82-9.42-1.11-12.24C107.84,126.59,108.52,124.63,111.78,125.23Z"/><path class="cls-3" d="M146.78,142.9s-8.5-22.05-28.34-21.58c0,0-9.3-6.29-7.09-12,0,0,2.2-10.56,16.38-7.41a38.73,38.73,0,0,0,4.32.39c3.5.37,7,.87,10.46,1.52,7.88,1.47,16.82,3.46,23.21,8.61a13.8,13.8,0,0,1,3.48,3.94c3.6,6.45-5.47,14.8-11.71,14.68C157.49,131.09,161.59,139.12,146.78,142.9Z"/><path class="cls-13" d="M139.07,121.17s-17.8.15-22.52,5.51,13.38,14.17,13.38,14.17l21.89,4.89L161,130.62s-3.59-4-11-6.93"/><path class="cls-12" d="M179.05,119.22c-.34-3.22-2.88-4.83-5.32-6.6a54.76,54.76,0,0,0-8-4.73c-10-4.92-20.95-7.75-31.85-9.73-3.31-.61-6.62-1.12-10-1.57-21.59-2.87-25.36,9.93-25.36,9.93-3,15,11.66,19,11.66,19s9.76,7.56,6.61,13.23-6.93,0-6.93,0-34,45.49-13.27,95.09h61.72a16.21,16.21,0,0,0,.71-9.52,24.53,24.53,0,0,0-5.9-11.91,16.42,16.42,0,0,0-3.23-2.71c-.35-.21-2.86-1.23-2.86-1.65,0,0,2.2-46.46,16.22-67.57,0,0,.47-7.08-3.31-8.19,1.73.51,4.46,0,6.15-.29,3.75-.72,7.73-2.11,10.31-5.06A10.45,10.45,0,0,0,179.05,119.22Zm-21.56,11.86s4.1,8-10.71,11.82c0,0-8.5-22.05-28.34-21.58,0,0-9.3-6.3-7.09-12,0,0,2.2-10.55,16.38-7.4a41.07,41.07,0,0,0,4.31.38c3.51.38,7,.88,10.47,1.52,7.88,1.47,16.82,3.46,23.21,8.61a13.71,13.71,0,0,1,3.48,4C172.8,122.86,163.73,131.2,157.49,131.08Z"/><path class="cls-2" d="M153.87,114.55l-4.25,9.14s7.09,6.61-2.36,5.35c0,0-8.51-2.52-8.19-7.09l6.77-11.81Z"/><path class="cls-11" d="M149.62,123.69l4.25-9.14-8-4.41-2.05,3.63A12.64,12.64,0,0,1,149.62,123.69Z"/><path class="cls-14" d="M118.68,96.9c-4.11,1.23-12.93,2.8-14.28-2.83a6.09,6.09,0,0,1,.22-4.11,5.72,5.72,0,0,1,2.44-2.33c3.45-1.91,8.07-1.66,10.66,1.53,0,0,8-1.71,2-10.24.38.53,3.66-2.56,3.88-3a4.4,4.4,0,0,0,.21-2.73,11.7,11.7,0,0,0-3.21-5.87,10.17,10.17,0,0,0-2.7-1.84c-.61-.29-3.63-.73-3.86-1.08a16.75,16.75,0,0,1-2.54-6.76,7.59,7.59,0,0,1,8.06-8.52,8,8,0,0,1,1.61.29c4.77,1.21,9.55,2.37,14.4,3.2,3.3.57,7.75,1.69,11,.53,0,0,8.39-3.34-1.24-10,0,0,21.13,2.78,28.12.24l17.89,32.3c.2.37,1.89.83,2.27,1a21.93,21.93,0,0,1,4.86,3.41c6.83,6.35,6,16.85.27,23.57A29.85,29.85,0,0,1,185.57,112a66.72,66.72,0,0,1-44.72-.8c-2-.74-3.9-1.56-5.81-2.43a58.53,58.53,0,0,1-10.86-6.11,17.09,17.09,0,0,1-3.45-3.29C120.47,99,119.14,96.84,118.68,96.9Z"/><polygon class="cls-15" points="200.69 71.37 173.73 77.84 168.93 54.55 196.46 48.16 200.69 71.37"/><path class="cls-16" d="M201.18,73.42l-9.13,2.19-14.48,3.47-3.36.8a2.13,2.13,0,0,1-2.53-1.55l-4.2-20.42-.6-2.88a2.15,2.15,0,0,1,1.56-2.53l9.27-2.15,14.86-3.45,3.4-.79a2.13,2.13,0,0,1,2.53,1.56L202.2,68l.53,2.91a2.1,2.1,0,1,1-4.08,1l-3.71-20.31-.53-2.91,2.53,1.56-9.27,2.15L172.81,55.8l-3.39.79L171,54.06l4.21,20.42.59,2.87-2.53-1.55,9.13-2.19,14.48-3.48,3.35-.8a2.1,2.1,0,0,1,1,4.09Z"/><polygon class="cls-15" points="161.74 80.66 134.78 87.13 129.98 63.84 157.51 57.45 161.74 80.66"/><path class="cls-16" d="M162.23,82.71,153.1,84.9l-14.48,3.47-3.35.8a2.12,2.12,0,0,1-2.53-1.55L128.53,67.2l-.59-2.88a2.14,2.14,0,0,1,1.55-2.53l9.28-2.15,14.85-3.45,3.4-.79A2.12,2.12,0,0,1,159.55,57l3.71,20.31.53,2.91a2.1,2.1,0,1,1-4.09,1L156,60.84l-.54-2.91L158,59.49l-9.28,2.15-14.86,3.45-3.39.79L132,63.35l4.21,20.42.59,2.87-2.53-1.55,9.13-2.19,14.48-3.48,3.36-.8a2.1,2.1,0,1,1,1,4.09Z"/><rect class="cls-16" x="162.27" y="61.3" width="9.33" height="13.14" transform="translate(139.65 246) rotate(-103.42)"/><path class="cls-11" d="M167.5,75.13a11.2,11.2,0,0,1,2.6-5,6.05,6.05,0,0,1,8.67-.18,7.67,7.67,0,0,1,1.91,5.08c-.1,4.28-4.86,5.34-8.29,5.61-.57,0-1.14.07-1.71.08"/><rect class="cls-16" x="117.72" y="64.9" width="9.33" height="23.49" transform="translate(72.7 212.23) rotate(-101.93)"/><ellipse class="cls-17" cx="146.32" cy="71.19" rx="2.37" ry="4.75" transform="translate(-11.56 31.79) rotate(-11.93)"/><path class="cls-17" d="M149.39,73.43a5.61,5.61,0,0,1-.19,2.42,3.16,3.16,0,0,1-.58,1,1.82,1.82,0,0,1-1,.58,1.78,1.78,0,0,1-1.11-.15,2.79,2.79,0,0,1-.94-.7,5.4,5.4,0,0,1-1.16-2.13,4.67,4.67,0,0,0,1,2.29,3,3,0,0,0,1,.81,1.91,1.91,0,0,0,2.42-.51,3,3,0,0,0,.59-1.14A4.71,4.71,0,0,0,149.39,73.43Z"/><ellipse class="cls-17" cx="186.33" cy="62.21" rx="2.37" ry="4.75" transform="translate(-8.84 39.86) rotate(-11.93)"/><path class="cls-17" d="M189.39,64.46a5.48,5.48,0,0,1-.19,2.42,3,3,0,0,1-.58,1,1.76,1.76,0,0,1-1,.58,1.78,1.78,0,0,1-1.11-.14,2.92,2.92,0,0,1-.94-.71,5.53,5.53,0,0,1-1.16-2.13,4.75,4.75,0,0,0,1,2.3,3.16,3.16,0,0,0,1,.81,1.94,1.94,0,0,0,2.42-.51,2.93,2.93,0,0,0,.59-1.15A4.57,4.57,0,0,0,189.39,64.46Z"/><path class="cls-16" d="M86.84,71.92a48.89,48.89,0,0,0,5.76,9.33c2.92,3.89,7,8.15,12.06,8.72a6.37,6.37,0,0,1,2.86-2.6c3.28-1.66,7.8-1.16,10.2,1.79.09.11,1.18-.41,1.28-.45a5.63,5.63,0,0,0,2.21-1.77,4.36,4.36,0,0,0,.71-3.06c-.21-1.9-1.32-3.27-2.16-4.9a1.65,1.65,0,0,0,.85-.35,8.39,8.39,0,0,0,3-2.95,4.41,4.41,0,0,0,.17-2.87A11.29,11.29,0,0,0,120.24,67c-1.67-1.44-3.8-1.85-5.85-2.49a1.55,1.55,0,0,1-.32-.14,1.26,1.26,0,0,1-.32-.4,17.23,17.23,0,0,1-2.27-6.35,7.59,7.59,0,0,1,8.06-8.52,8,8,0,0,1,1.61.29c4.77,1.21,9.55,2.37,14.4,3.2,3.3.57,7.75,1.69,11,.53,0,0,8.39-3.34-1.24-10,0,0,21.13,2.78,28.12.24a25.21,25.21,0,0,0,9-5c4.87-4.54,5.78-11.24,4.08-17.45-1.89-6.86-6.75-11.85-13-15.1-9.38-4.88-21.64-8.06-31.74-3.72a29.5,29.5,0,0,0-7.44,4.67c-2.3,1.94-5.62,4.78-6.85,7.57a14.65,14.65,0,0,0,1.36-7.19c-.45-4.07-4.78-5-8.22-4.85C107.13,3,102,19.81,97.6,30.05c-.71,1.65-1.18,3.48-1.93,5.07C93.77,31.72,90,23.74,85,24.8c-1.51.32-3,.71-3.65,2.3a6.77,6.77,0,0,0-.27,3.29c.52,4.88,2.74,8.26,7.16,10.35C84.61,39,75.41,35.15,75.06,42.29a7.73,7.73,0,0,0,3.8,6.63c.5.33,7.61,3.6,7.75,3a56.75,56.75,0,0,0-1.25,8.3,32.48,32.48,0,0,0,0,6.83A18.35,18.35,0,0,0,86.84,71.92Z"/><path class="cls-17" d="M110.9,91.73a7.36,7.36,0,0,0-1.15,0,6.63,6.63,0,0,0-1.15.21,8.87,8.87,0,0,0-1.15.42,3.26,3.26,0,0,1,.46-.45l.25-.19.27-.18a5,5,0,0,1,1.2-.49,6.42,6.42,0,0,1,1.3-.16,7.84,7.84,0,0,1,1.29.14,8.3,8.3,0,0,1,2.39.9,7.67,7.67,0,0,1,2,1.56c-.76-.34-1.51-.66-2.26-.93l-.66-.23-.65.13a10,10,0,0,0-1.32.38c-.21.08-.41.18-.61.28a4.92,4.92,0,0,0-.56.37A3,3,0,0,0,110,94a4.25,4.25,0,0,0-.43.57,2.09,2.09,0,0,1,.08-.36l.06-.18.08-.17a2.87,2.87,0,0,1,.43-.62,3.44,3.44,0,0,1,.59-.48,3.52,3.52,0,0,1,.67-.34,4.61,4.61,0,0,1,1.31-.3c-.25-.07-.51-.13-.77-.18A8.84,8.84,0,0,0,110.9,91.73Z"/><path class="cls-17" d="M136.59,59.21a12.85,12.85,0,0,1,2.94-2.64,15.23,15.23,0,0,1,3.69-1.8,13.11,13.11,0,0,1,2.06-.48,9.93,9.93,0,0,1,2.11-.06,7.81,7.81,0,0,1,2,.42l.46.19a3.48,3.48,0,0,1,.43.22,6.09,6.09,0,0,1,.8.52,17,17,0,0,0-1.91-.33,11.83,11.83,0,0,0-1.88,0,16.44,16.44,0,0,0-1.85.25c-.61.13-1.22.29-1.82.48a29.08,29.08,0,0,0-3.55,1.45C138.92,58,137.77,58.56,136.59,59.21Z"/><path class="cls-17" d="M174.65,47A11.16,11.16,0,0,1,177,43.85a9.5,9.5,0,0,1,3.17-2,7.4,7.4,0,0,1,1.82-.41,6.52,6.52,0,0,1,1.91.15,6.42,6.42,0,0,1,1.88.8l.44.29.42.35a7.18,7.18,0,0,1,.78.78,12.86,12.86,0,0,0-1.77-.66,8.85,8.85,0,0,0-1.72-.26,9.14,9.14,0,0,0-1.66.12,11.65,11.65,0,0,0-1.61.44A17.15,17.15,0,0,0,177.64,45C176.64,45.62,175.66,46.31,174.65,47Z"/><path class="cls-8" d="M146.62,100.86a19.75,19.75,0,1,1,38.68,8Z"/><path d="M146.57,101.1l-.23,0,0-.23a20,20,0,1,1,39.15,8l0,.24Zm8.65-12.55a19.39,19.39,0,0,0-8.32,12.13l38.22,7.86a19.51,19.51,0,0,0-15.23-22.81,19.82,19.82,0,0,0-4-.41A19.38,19.38,0,0,0,155.22,88.55Z"/><line class="cls-8" x1="179.83" y1="90.95" x2="177.59" y2="107.04"/><rect x="170.59" y="98.76" width="16.24" height="0.47" transform="translate(56.05 262.38) rotate(-82.09)"/><line class="cls-8" x1="159.76" y1="86.04" x2="156.51" y2="102.82"/><rect x="149.59" y="94.19" width="17.09" height="0.47" transform="translate(35.37 231.73) rotate(-79.04)"/><path class="cls-11" d="M174.61,109c-1.37-.47-2.75-.85-4.13-1.21s-2.78-.69-4.18-1-2.81-.59-4.22-.83-2.83-.46-4.26-.61c1.36.47,2.74.85,4.13,1.21s2.78.69,4.18,1,2.8.58,4.22.82S173.18,108.82,174.61,109Z"/><path class="cls-8" d="M78,91s-21.41-2.61-21.41-15.5L42.11,88.68s7.6,21.42,24.41,22.57Z"/><path class="cls-8" d="M.56,76.15s19.89-5.56,24.86,6.34L34.6,64.43S19.33,47.6,3.37,53Z"/><path class="cls-8" d="M36.6,19.74S51.31,39.81,40,50.47l24.26,2.68s12.5-24.36-.38-40Z"/></g></g></svg>