<svg xmlns="http://www.w3.org/2000/svg" viewBox="0 0 141.62 39.92"><defs><style>.cls-1{fill:#f6cc02;}.cls-2{fill:#ecb314;}.cls-3{fill:#fcc786;}.cls-4{fill:none;stroke:#ecb314;stroke-miterlimit:10;stroke-width:0.33px;}.cls-5{fill:#21354a;}.cls-6{fill:#ff7bac;}.cls-7{fill:#ed1e79;}.cls-8{fill:#6b3143;}.cls-9{fill:#fff;}.cls-10{fill:#603813;}.cls-11{fill:#009245;}</style></defs><g id="Capa_2" data-name="Capa 2"><g id="Capa_3" data-name="Capa 3"><rect class="cls-1" x="118.72" y="22.44" width="5.72" height="17.23" rx="2.32" transform="translate(33.9 120.82) rotate(-60)"/><path class="cls-2" d="M128,32.71c.22.27.46.52.68.79l0,0h0l.08.11a1.64,1.64,0,0,1,.14.22,2.26,2.26,0,0,1,.11.22s0,0,0,0a.64.64,0,0,0,0,.07.65.65,0,0,1,0,.13.33.33,0,0,0,.63-.17,5.53,5.53,0,0,0-1.29-1.9.33.33,0,0,0-.46,0,.35.35,0,0,0,0,.47Z"/><path class="cls-2" d="M127.42,34.49l.16.17.08.08,0,0s0,.05,0,0,0,0,0,0l0,.06.06.09.13.2c.16.26.3.54.46.8a.33.33,0,0,0,.57-.33A7.27,7.27,0,0,0,127.88,34a.33.33,0,0,0-.46.46Z"/><path class="cls-2" d="M126.08,35.38l.17.17.07.09,0,0s0,0,0,0l0,0,0,.05.06.09.13.2c.16.27.3.54.47.8a.32.32,0,0,0,.44.12.33.33,0,0,0,.12-.45,6.85,6.85,0,0,0-1.11-1.62.34.34,0,0,0-.46,0,.32.32,0,0,0,0,.46Z"/><path class="cls-1" d="M30,33.05a2.2,2.2,0,0,1-.22.53l-3,5.16a2.31,2.31,0,0,1-3.16.85l-.95-.54a2.33,2.33,0,0,1-.84-3.17L23.54,33l.48-.84.81-1.39A2.31,2.31,0,0,1,28,29.87l.94.54A2.31,2.31,0,0,1,30,33.05Z"/><path class="cls-1" d="M40.61,37.63l-.88.64a2.32,2.32,0,0,1-3.24-.51L33,33h0a2.39,2.39,0,0,1-.39-.86,2.33,2.33,0,0,1,.9-2.37l.88-.64a2.33,2.33,0,0,1,3.24.5l1.93,2.65.49.67,1.09,1.5A2.32,2.32,0,0,1,40.61,37.63Z"/><rect class="cls-1" x="106.45" y="29.01" width="5.72" height="10.6" rx="2.32"/><path class="cls-2" d="M22.37,38.31l.57-.74.26-.34s0,0,0,0l0-.05.06-.08.14-.18a.34.34,0,0,0,.1-.23.33.33,0,0,0-.1-.23.33.33,0,0,0-.46,0l-.57.73-.26.34-.13.17,0,0h0l-.07.1a.33.33,0,0,0-.1.23.34.34,0,0,0,.1.23.33.33,0,0,0,.46,0Z"/><path class="cls-2" d="M23.68,39.25c.1-.27.19-.54.3-.81l0,0,0-.08c0-.07.07-.14.1-.2a2.71,2.71,0,0,1,.21-.37.33.33,0,0,0-.57-.33,8.26,8.26,0,0,0-.72,1.67.32.32,0,0,0,.23.4.34.34,0,0,0,.4-.23Z"/><path class="cls-2" d="M26,39.5a6.38,6.38,0,0,1-.15-.76v0l0-.09,0-.26L25.72,38a.33.33,0,0,0-.64.18c0,.12.05.25.07.37v.06h0v.08c0,.09,0,.18,0,.26a5,5,0,0,0,.15.77A.33.33,0,0,0,26,39.5Z"/><path class="cls-2" d="M40.06,37.77a1.54,1.54,0,0,0-.55-.84,4.12,4.12,0,0,0-.41-.32l-.19-.13-.1-.07,0,0c-.05,0,.06.06,0,0a.36.36,0,0,0-.23-.09.33.33,0,0,0-.23.09.34.34,0,0,0,0,.47l.42.3.18.13.09.07,0,0,0,0,0,0a1.07,1.07,0,0,1,.16.14l.08.08,0,0s0-.06,0,0l.11.19c0,.05,0-.08,0,0l0,0,0,.12a.33.33,0,1,0,.63-.18Z"/><path class="cls-2" d="M41.15,36.54a7.4,7.4,0,0,0-1.44-.9.34.34,0,0,0-.41.23.35.35,0,0,0,.23.41h0c.06,0,0,0,0,0l.07,0,.17.09.34.22c.23.16.45.33.68.48a.33.33,0,0,0,.45-.12.34.34,0,0,0-.12-.45Z"/><path class="cls-2" d="M41.75,35.85a1.06,1.06,0,0,0-.29-.4,2.1,2.1,0,0,0-.41-.31l-.39-.24-.17-.1-.08,0,0,0s.07.06,0,0a.34.34,0,0,0-.23-.1.33.33,0,0,0-.23.1.32.32,0,0,0,0,.46,6.84,6.84,0,0,0,.72.47l.19.12.08.06c.06,0,0,0,0,0l0,0,.13.13s0,.06,0,0l0,0s.07.12,0,0a.37.37,0,0,0,.15.2.31.31,0,0,0,.25,0,.29.29,0,0,0,.19-.15.32.32,0,0,0,0-.25Z"/><path class="cls-2" d="M107.11,37.33s0,.05,0,.08v0s0,.06,0,0,0,0,0,.06v.09c0,.07,0,.14,0,.2s0,.08,0,.11v0h0a6.93,6.93,0,0,0-.1.89.33.33,0,0,0,.33.33.34.34,0,0,0,.33-.33,2.68,2.68,0,0,1,0-.4s0,.06,0,0v-.05l0-.11a2.34,2.34,0,0,1,0-.26,2.05,2.05,0,0,0,0-.89.35.35,0,0,0-.41-.23.34.34,0,0,0-.23.41Z"/><path class="cls-2" d="M108.9,37.34a9.58,9.58,0,0,0-.22,2.07.33.33,0,0,0,.65,0,7.94,7.94,0,0,1,0-1,2.57,2.57,0,0,1,.05-.4c0-.17.06-.35.1-.51a.34.34,0,0,0-.23-.41.33.33,0,0,0-.4.23Z"/><path class="cls-2" d="M110.56,37.3l0,.05s0,0,0,0,0,.07,0,.11a1.17,1.17,0,0,1,.05.2,1.57,1.57,0,0,1,0,.23c0-.06,0,0,0,0s0,.08,0,.12a6.1,6.1,0,0,0,.14.94.35.35,0,0,0,.41.23.34.34,0,0,0,.23-.41l-.06-.23a.52.52,0,0,0,0-.11v-.06h0c0-.15,0-.3,0-.45a3.29,3.29,0,0,0-.26-1,.33.33,0,0,0-.45-.12.34.34,0,0,0-.12.45Z"/><path class="cls-2" d="M30,33.05,23.54,33l.48-.84h6.05A2.31,2.31,0,0,1,30,33.05Z"/><polygon class="cls-3" points="141.53 20.68 125.51 8.81 106.36 9.23 106.25 32.02 125.51 32.55 141.53 20.68"/><path class="cls-2" d="M39.53,32.22l-7-.14a2.39,2.39,0,0,0,.39.86l7.05,0Z"/><polygon class="cls-1" points="115.36 32.07 25.89 32.28 25.79 8.87 111.53 8.97 115.14 12.79 107.49 16.39 115.36 22.11 107.49 27.2 115.36 32.07"/><line class="cls-4" x1="107.23" y1="27.28" x2="25.81" y2="27.28"/><line class="cls-4" x1="107.29" y1="16.47" x2="25.81" y2="16.47"/><polyline class="cls-4" points="111.21 9.06 115.03 12.87 107.19 16.47 115.03 22.2 107.34 27.28 115.09 32.07"/><polygon class="cls-5" points="136.11 16.58 138.02 23.57 141.62 20.61 136.11 16.58"/><circle class="cls-5" cx="132.09" cy="20.61" r="0.42"/><circle class="cls-5" cx="133.36" cy="20.18" r="0.42"/><circle class="cls-5" cx="133.36" cy="21.67" r="0.42"/><path class="cls-5" d="M128.75,28a2,2,0,0,0,2.59-2.44,7.25,7.25,0,0,0-10.42-3.79,2,2,0,0,0,.42,3.54Z"/><path class="cls-6" d="M126.54,24.87s6.18.79,4.51,5.82-5.55-4.17-7.42-4.86C121.94,25.21,124.91,24.55,126.54,24.87Z"/><path class="cls-7" d="M124.78,25a5.65,5.65,0,0,1,3.37,1.61,4.39,4.39,0,0,1,1,1.62,4.61,4.61,0,0,1,.26,1.87,7.54,7.54,0,0,0-.56-1.74,4.79,4.79,0,0,0-1-1.45,6.9,6.9,0,0,0-1.41-1.11A10.59,10.59,0,0,0,124.78,25Z"/><path class="cls-8" d="M133,3.8a.54.54,0,0,1-.74-.7A4.88,4.88,0,0,1,136.91,0c4.57-.14,3.62,5,.27,4.12a.47.47,0,0,1-.24-.15C135.73,2.73,134.08,3.24,133,3.8Z"/><circle class="cls-9" cx="131.04" cy="10.75" r="6.35"/><path class="cls-5" d="M137.31,10.75a6.27,6.27,0,1,1-5.07-6.16,6.35,6.35,0,0,1,5.07,6.16c0,.09.15.09.15,0A6.42,6.42,0,1,0,125.53,14a6.42,6.42,0,0,0,11.93-3.29C137.46,10.66,137.32,10.66,137.31,10.75Z"/><circle class="cls-5" cx="132.51" cy="10.67" r="3.06"/><path class="cls-8" d="M117.13,4.92a.54.54,0,0,0,.4-.93,8.4,8.4,0,0,0-10.3-1.48c-6.94,3.57-1.16,10.48,3.07,6.26a.55.55,0,0,0,.14-.26C111.28,5.12,115.07,4.82,117.13,4.92Z"/><circle class="cls-9" cx="122.75" cy="10.75" r="6.35"/><path class="cls-5" d="M129,10.75a6.28,6.28,0,1,1-11.67-3.21A6.28,6.28,0,0,1,129,10.75a.07.07,0,0,0,.14,0A6.42,6.42,0,1,0,117.24,14a6.42,6.42,0,0,0,11.93-3.29A.07.07,0,0,0,129,10.75Z"/><circle class="cls-5" cx="122.83" cy="10.67" r="3.06"/><rect class="cls-2" x="106.45" y="32.1" width="5.72" height="0.69"/><path class="cls-2" d="M119.29,32.75a17.63,17.63,0,0,0,6.28-.19,3.44,3.44,0,0,0,1.92-1.37H126.4l-1.07,1h-6l-1.11.08Z"/><path class="cls-10" d="M0,14.86s-.85,8.35,7.77,10.37,8.64-8.3,1.76-7.58C5.08,21.05,0,14.86,0,14.86Z"/><rect class="cls-11" x="21.34" y="8.87" width="4.66" height="23.39"/><path class="cls-6" d="M21.37,32.26H11.28a2.41,2.41,0,0,1-2.41-2.41V11.28a2.4,2.4,0,0,1,2.41-2.41H21.37Z"/></g></g></svg>