<svg xmlns="http://www.w3.org/2000/svg" viewBox="0 0 12.9 10.52"><defs><style>.cls-1{fill:#0d0c33;}</style></defs><g id="Capa_2" data-name="Capa 2"><g id="Capa_3" data-name="Capa 3"><path class="cls-1" d="M0,9.33a5.41,5.41,0,0,0,3.89-1.1A2.64,2.64,0,0,1,2,7.31a2.47,2.47,0,0,1-.53-.92,3,3,0,0,0,1.16,0A2.66,2.66,0,0,1,.5,3.71,2.68,2.68,0,0,0,1.67,4,2.66,2.66,0,0,1,.53,2.14,2.6,2.6,0,0,1,.87.49,7.58,7.58,0,0,0,6.32,3.26c0-.27,0-.52,0-.77A2.65,2.65,0,0,1,8.21.1,2.62,2.62,0,0,1,10.8.77a.17.17,0,0,0,.18,0A5,5,0,0,0,12.43.26l.11-.05a2,2,0,0,1-.42.8c-.2.23-.43.43-.65.65l.72-.16c.23-.07.46-.15.71-.21-.21.25-.41.51-.64.75s-.4.34-.6.52a.33.33,0,0,0-.07.16,7.63,7.63,0,0,1-3.3,6.53,6.83,6.83,0,0,1-3.17,1.2,7.68,7.68,0,0,1-3.2-.24A7.4,7.4,0,0,1,.06,9.38Z"/></g></g></svg>