<svg xmlns="http://www.w3.org/2000/svg" viewBox="0 0 58.82 87.46"><defs><style>.cls-1{fill:#898781;}.cls-2{fill:#aeaba1;}.cls-3{fill:#565551;}.cls-4{fill:#02110c;}.cls-5{fill:#f6cc02;}.cls-6{fill:#d8b009;}.cls-7{fill:#da3633;}.cls-10,.cls-8{fill:none;stroke-linecap:round;stroke-miterlimit:10;stroke-width:0.32px;}.cls-8{stroke:#be1622;}.cls-9{fill:#4aae50;}.cls-10{stroke:#008d36;}</style></defs><g id="Capa_2" data-name="Capa 2"><g id="Capa_1-2" data-name="Capa 1"><polygon class="cls-1" points="29.48 54.95 26.06 55.95 27.94 60.7 32.43 54.95 29.48 54.95"/><polygon class="cls-2" points="7.15 31.13 7.7 45.33 13.67 50.97 24.88 50.97 30.37 43.78 29.34 26.98 24.88 27.64 23.85 30.52 15.11 32.95 10.85 31.13 7.15 31.13"/><polygon class="cls-2" points="10.85 21.12 24.88 26.43 23.85 13.97 16.33 14.48 12.13 13.49 10.85 18.89 10.85 21.12"/><polygon class="cls-2" points="13.67 50.97 14.17 58.93 24.18 58.93 24.18 50.97 13.67 50.97"/><polygon class="cls-3" points="35.82 58.93 30.96 64.39 29.48 64.39 26.83 58.93 29.48 58.2 32.88 58.2 35.82 58.93"/><path class="cls-4" d="M43.78,73.16a.23.23,0,0,0,0-.45.23.23,0,0,0,0,.45Z"/><rect class="cls-2" x="24.18" y="52.96" width="3.76" height="5.97"/><polygon class="cls-3" points="40.21 61.88 41.28 61.29 41.28 54.95 43.38 54.58 43.12 61.88 40.21 63.58 38.77 62.99 40.21 61.88"/><polygon class="cls-5" points="40.21 55.5 40.21 63.58 33.91 63.58 33.03 62.06 33.29 61.71 36.62 57.16 39.75 55.72 40.21 55.5"/><polygon class="cls-2" points="5.39 56.62 2.21 60.11 2.21 62.84 5.9 61.81 7.84 57.83 5.39 56.62"/><polygon class="cls-3" points="10.85 52.96 7.15 53.85 4.83 55.95 7.15 58.74 10.25 58.74 9.14 55.51 10.85 52.96"/><polygon class="cls-5" points="32.8 0 29.04 9.07 29.48 12.49 34.68 0 32.8 0"/><polygon class="cls-2" points="48.65 25.65 48.65 40.8 52.15 38.98 52.15 26.98 48.65 25.65"/><polygon class="cls-5" points="10.85 11.94 8.14 14.6 8.14 3.98 9.5 3.01 10.85 11.94"/><polygon class="cls-6" points="40.21 55.5 40.21 63.58 33.91 63.58 33.03 62.06 33.29 61.71 34.33 62.51 39.39 62.51 39.39 56.62 39.75 55.72 40.21 55.5"/><polygon class="cls-3" points="49.37 42.79 47.17 39.76 50.38 37.48 50.71 26.98 47.84 26.98 47.84 24.66 48.94 23.66 48.94 20.18 51.38 18.89 50.05 12.49 55.25 15.81 55.25 19.35 53.15 21.34 53.15 23.88 55.25 25.87 54.36 38.09 57.13 39.76 57.13 41.41 56.02 43.67 49.37 42.79"/><polygon class="cls-2" points="58.82 47.54 54.99 50.97 35.06 58.74 29.48 58.2 27.94 52.15 30.37 50.09 50.71 42.27 56.32 41.41 58.82 42.72 58.82 47.54"/><polygon class="cls-3" points="12.01 67.54 14.89 63.58 14.89 61.29 13.45 58.74 8.7 59.73 12.01 67.54"/><polygon class="cls-5" points="52.15 18.89 40.21 22.78 34.68 19.35 29.04 21.56 28.75 19.79 28.6 18.89 37.33 13.97 48.17 11.5 48.85 12.41 50.49 14.6 52.15 18.89"/><polyline class="cls-2" points="15.66 58.93 10.85 58.93 9.8 54.95 11.57 52.96 14.56 52.96"/><polygon class="cls-3" points="12.5 71.65 15.66 83.41 18.93 84.44 20.8 82.52 16.33 65.06 12.73 63.58 10.85 66.6 12.5 71.65"/><polygon class="cls-5" points="3.61 73.42 10.85 87.46 14.17 85.03 12.24 73.42 12.73 70.1 9.8 59.73 7.15 58.49 6.06 61.47 2.21 62.84 2.4 60.37 1.51 60.52 0 63.35 2.21 72.97 3.61 73.42"/><polygon class="cls-6" points="48.85 12.41 37.51 15.54 28.75 19.79 28.6 18.89 37.33 13.97 48.17 11.5 48.85 12.41"/><polygon class="cls-5" points="7.15 32.06 10.25 34.77 10.85 43.78 14.17 47.54 22.3 47.54 26.83 42.68 26.17 33.39 29.48 31.13 28.93 15.48 23.96 11.5 21.8 11.5 21.8 25.21 12.68 25.21 12.68 13.05 10.85 12.94 7.15 17.47 7.15 32.06"/><circle class="cls-7" cx="16.33" cy="25.65" r="5.47"/><path class="cls-8" d="M14.3,29.65A4.5,4.5,0,0,1,12,26.77"/><circle class="cls-9" cx="17.49" cy="38.09" r="3.32"/><path class="cls-10" d="M16.68,40.73a2.81,2.81,0,0,1-1.86-3.51"/></g></g></svg>