<svg id="Capa_1" enable-background="new 0 0 512 512" height="512" viewBox="0 0 512 512" width="512" xmlns="http://www.w3.org/2000/svg"><g><path d="m275.371 45c4.143 0 7.5-3.357 7.5-7.5s-3.357-7.5-7.5-7.5h-38.741c-4.143 0-7.5 3.357-7.5 7.5s3.357 7.5 7.5 7.5z"/><path d="m313.705 152.356c0-31.818-25.887-57.705-57.705-57.705s-57.704 25.887-57.704 57.705 25.886 57.704 57.704 57.704 57.705-25.885 57.705-57.704zm-100.41 0c0-23.548 19.157-42.705 42.704-42.705 23.548 0 42.705 19.157 42.705 42.705 0 23.547-19.157 42.704-42.705 42.704-23.546.001-42.704-19.157-42.704-42.704z"/><path d="m263.5 168.312v-8.456h8.457c4.143 0 7.5-3.357 7.5-7.5s-3.357-7.5-7.5-7.5h-8.457v-8.457c0-4.143-3.357-7.5-7.5-7.5s-7.5 3.357-7.5 7.5v8.457h-8.456c-4.143 0-7.5 3.357-7.5 7.5s3.357 7.5 7.5 7.5h8.456v8.456c0 4.143 3.357 7.5 7.5 7.5s7.5-3.357 7.5-7.5z"/><path d="m246.751 259.322c0-9.626-7.832-17.458-17.458-17.458h-61.782c-9.626 0-17.458 7.832-17.458 17.458v57.35c0 9.626 7.832 17.458 17.458 17.458h61.782c9.626 0 17.458-7.832 17.458-17.458zm-15 57.35c0 1.355-1.103 2.458-2.458 2.458h-61.782c-1.355 0-2.458-1.103-2.458-2.458v-57.35c0-1.355 1.103-2.458 2.458-2.458h61.782c1.355 0 2.458 1.103 2.458 2.458z"/><path d="m361.947 259.322c0-9.626-7.832-17.458-17.458-17.458h-61.782c-9.626 0-17.458 7.832-17.458 17.458v57.35c0 9.626 7.832 17.458 17.458 17.458h61.782c9.626 0 17.458-7.832 17.458-17.458zm-15 57.35c0 1.355-1.103 2.458-2.458 2.458h-61.782c-1.355 0-2.458-1.103-2.458-2.458v-57.35c0-1.355 1.103-2.458 2.458-2.458h61.782c1.355 0 2.458 1.103 2.458 2.458z"/><path d="m282.707 443.034h61.782c9.626 0 17.458-7.832 17.458-17.458v-57.35c0-9.626-7.832-17.458-17.458-17.458h-61.782c-9.626 0-17.458 7.832-17.458 17.458v57.35c0 9.626 7.832 17.458 17.458 17.458zm-2.458-74.807c0-1.355 1.103-2.458 2.458-2.458h61.782c1.355 0 2.458 1.103 2.458 2.458v57.35c0 1.355-1.103 2.458-2.458 2.458h-61.782c-1.355 0-2.458-1.103-2.458-2.458z"/><path d="m229.293 428.034h-17.269c-4.143 0-7.5 3.357-7.5 7.5s3.357 7.5 7.5 7.5h17.269c9.626 0 17.458-7.832 17.458-17.458v-57.35c0-9.626-7.832-17.458-17.458-17.458h-61.782c-9.626 0-17.458 7.832-17.458 17.458v57.35c0 9.626 7.832 17.458 17.458 17.458h14.526c4.143 0 7.5-3.357 7.5-7.5s-3.357-7.5-7.5-7.5h-14.526c-1.355 0-2.458-1.103-2.458-2.458v-57.35c0-1.355 1.103-2.458 2.458-2.458h61.782c1.355 0 2.458 1.103 2.458 2.458v57.35c0 1.356-1.102 2.458-2.458 2.458z"/><path d="m191.697 49.18c-6.136-11.83-18.225-19.18-31.551-19.18h-34.205c-6.008 0-10.896 4.888-10.896 10.896v430.209c0 6.008 4.888 10.896 10.896 10.896h260.117c6.009 0 10.896-4.888 10.896-10.896v-187.307c0-4.143-3.357-7.5-7.5-7.5s-7.5 3.357-7.5 7.5v183.202h-251.909v-422h30.101c7.701 0 14.688 4.248 18.234 11.084 5.246 10.122 15.588 16.41 26.99 16.41h101.259c11.4 0 21.743-6.288 26.99-16.409 3.546-6.838 10.533-11.085 18.235-11.085h30.101v208.811c0 4.143 3.357 7.5 7.5 7.5s7.5-3.357 7.5-7.5v-212.915c0-6.008-4.888-10.896-10.896-10.896h-34.205c-13.327 0-25.417 7.35-31.551 19.181-2.658 5.128-7.898 8.313-13.674 8.313h-101.258c-5.777 0-11.016-3.185-13.674-8.314z"/><path d="m386.059 0h-187.657c-4.143 0-7.5 3.357-7.5 7.5s3.357 7.5 7.5 7.5h187.657c14.279 0 25.896 11.616 25.896 25.896v430.209c0 14.279-11.616 25.896-25.896 25.896h-260.118c-14.279 0-25.896-11.616-25.896-25.896v-430.209c0-14.279 11.616-25.896 25.896-25.896h42.475c4.143 0 7.5-3.357 7.5-7.5s-3.357-7.5-7.5-7.5h-42.475c-22.55 0-40.896 18.346-40.896 40.896v430.209c0 22.55 18.346 40.896 40.896 40.896h260.118c22.55 0 40.896-18.346 40.896-40.896v-430.209c0-22.55-18.346-40.896-40.896-40.896z"/></g></svg>