<?xml version="1.0" encoding="iso-8859-1"?>
<!-- Generator: Adobe Illustrator 19.0.0, SVG Export Plug-In . SVG Version: 6.00 Build 0)  -->
<svg version="1.1" id="Capa_1" xmlns="http://www.w3.org/2000/svg" xmlns:xlink="http://www.w3.org/1999/xlink" x="0px" y="0px"
	 viewBox="0 0 512.001 512.001" style="enable-background:new 0 0 512.001 512.001;" xml:space="preserve">
<g>
	<g>
		<g>
			<path d="M204.254,128.271H18.428C8.267,128.271,0,136.538,0,146.698v269.57c0,10.16,8.267,18.427,18.428,18.427h185.826
				c10.161,0,18.428-8.267,18.428-18.427v-269.57C222.681,136.538,214.414,128.271,204.254,128.271z M207.683,416.268
				c0,1.891-1.539,3.429-3.43,3.429H18.428c-1.891,0-3.43-1.538-3.43-3.429v-269.57c0-1.891,1.539-3.429,3.43-3.429h185.826
				c1.891,0,3.43,1.538,3.43,3.429V416.268z"/>
			<path d="M367.312,181.996H259.186c-10.161,0-18.428,8.267-18.428,18.428v213.951c0,10.161,8.267,18.428,18.428,18.428h108.127
				c10.161,0,18.428-8.267,18.428-18.428V200.423C385.739,190.262,377.472,181.996,367.312,181.996z M370.742,414.375
				L370.742,414.375c-0.001,1.892-1.54,3.43-3.431,3.43H259.186c-1.891,0-3.43-1.538-3.43-3.43V200.423
				c0-1.892,1.539-3.43,3.43-3.43h108.127c1.891,0,3.43,1.538,3.43,3.43V414.375z"/>
			<path d="M493.573,253.987h-75.408c-10.161,0-18.428,8.267-18.428,18.428v144.149c0,10.161,8.267,18.428,18.428,18.428h75.408
				c10.161,0,18.428-8.267,18.428-18.428v-144.15C512,262.253,503.734,253.987,493.573,253.987z M497.002,416.563
				c0,1.892-1.539,3.43-3.43,3.43h-75.408c-1.891,0-3.43-1.538-3.43-3.43V272.413c0-1.892,1.539-3.43,3.43-3.43h75.408
				c1.891,0,3.43,1.538,3.43,3.43V416.563z"/>
			<path d="M154.269,123.004c4.141,0,7.499-3.357,7.499-7.499V95.006c0-1.653,1.345-2.999,2.999-2.999h105.988
				c1.654,0,2.999,1.346,2.999,2.999v44.389l-8.196-8.196c-2.929-2.928-7.677-2.928-10.605,0c-2.929,2.93-2.929,7.677,0,10.606
				l20.997,20.997c0.045,0.045,0.091,0.09,0.137,0.134c1.446,1.375,3.306,2.063,5.165,2.063h0.001c0.023,0,0.047,0,0.07-0.001
				c0.037,0,0.073,0,0.11-0.001c0.036-0.001,0.073-0.002,0.109-0.004c0.023-0.001,0.047-0.001,0.07-0.003
				c0.023-0.001,0.046-0.003,0.07-0.004c0.038-0.002,0.076-0.004,0.114-0.007c0.005,0,0.011-0.001,0.016-0.001
				c0.055-0.004,0.11-0.009,0.165-0.014c0.002,0,0.005,0,0.007-0.001c1.4-0.137,2.768-0.666,3.927-1.587
				c0.006-0.005,0.011-0.009,0.017-0.013c0.03-0.024,0.06-0.049,0.09-0.073c0.016-0.014,0.033-0.027,0.049-0.041
				c0.034-0.029,0.068-0.058,0.102-0.087c0.029-0.025,0.057-0.05,0.085-0.075c0.015-0.013,0.029-0.026,0.044-0.04
				c0.033-0.03,0.066-0.061,0.099-0.092c0.008-0.008,0.017-0.015,0.025-0.023c0.042-0.04,0.083-0.08,0.124-0.121
				c0.003-0.002,0.005-0.005,0.008-0.007l19.997-19.997c2.929-2.93,2.929-7.677,0-10.606c-2.929-2.928-7.677-2.928-10.605,0
				l-7.196,7.196V95.006c0-9.924-8.073-17.997-17.997-17.997H164.767c-9.924,0-17.997,8.073-17.997,17.997v20.498
				C146.77,119.646,150.128,123.004,154.269,123.004z"/>
			<path d="M336.246,173.997c4.141,0,7.499-3.357,7.499-7.499V146c0-1.653,1.345-2.999,2.999-2.999h88.991
				c1.654,0,2.999,1.346,2.999,2.999v70.386l-8.196-8.196c-2.929-2.928-7.677-2.928-10.605,0c-2.929,2.93-2.929,7.677,0,10.606
				l20.997,20.997c0.045,0.045,0.091,0.09,0.137,0.134c1.446,1.375,3.306,2.063,5.165,2.063h0.001c0.023,0,0.047,0,0.07-0.001
				c0.037,0,0.073,0,0.11-0.001c0.036-0.001,0.073-0.002,0.109-0.004c0.023-0.001,0.047-0.001,0.07-0.003
				c0.023-0.001,0.046-0.003,0.07-0.004c0.038-0.002,0.076-0.004,0.114-0.007c0.005,0,0.011-0.001,0.016-0.001
				c0.055-0.004,0.11-0.009,0.165-0.014c0.002,0,0.005,0,0.007-0.001c1.4-0.137,2.768-0.666,3.927-1.587
				c0.006-0.005,0.011-0.009,0.017-0.013c0.03-0.024,0.06-0.049,0.09-0.073c0.016-0.014,0.033-0.027,0.049-0.041
				c0.034-0.029,0.068-0.058,0.102-0.087c0.029-0.025,0.057-0.05,0.085-0.075c0.015-0.013,0.029-0.026,0.044-0.04
				c0.033-0.03,0.066-0.061,0.099-0.092c0.008-0.008,0.017-0.015,0.025-0.023c0.042-0.04,0.083-0.08,0.124-0.121
				c0.003-0.002,0.005-0.005,0.008-0.007l19.997-19.997c2.929-2.93,2.929-7.677,0-10.606c-2.929-2.928-7.677-2.928-10.605,0
				l-7.196,7.196v-70.385c0-9.924-8.073-17.997-17.997-17.997h-88.991c-9.924,0-17.997,8.073-17.997,17.997v20.498
				C328.747,170.64,332.104,173.997,336.246,173.997z"/>
			<path d="M189.265,152H33.285c-4.141,0-7.499,3.357-7.499,7.499v77.99c0,4.143,3.358,7.499,7.499,7.499h90.738
				c4.141,0,7.499-3.357,7.499-7.499c0-4.142-3.358-7.499-7.499-7.499H40.784v-62.992h140.982v62.992h-27.746
				c-4.141,0-7.499,3.357-7.499,7.499c0,4.143,3.358,7.499,7.499,7.499h35.245c4.141,0,7.499-3.357,7.499-7.499v-77.99
				C196.764,155.357,193.406,152,189.265,152z"/>
			<path d="M189.265,356.974H33.285c-4.141,0-7.499,3.357-7.499,7.499v37.995c0,4.142,3.358,7.499,7.499,7.499h155.98
				c4.141,0,7.499-3.357,7.499-7.499v-37.995C196.764,360.33,193.406,356.974,189.265,356.974z M181.766,394.969H40.784v-22.997
				h140.982V394.969z"/>
			<path d="M33.285,346.975h86.989c4.141,0,7.499-3.357,7.499-7.499v-77.99c0-4.142-3.358-7.499-7.499-7.499H33.285
				c-4.141,0-7.499,3.357-7.499,7.499v77.99C25.786,343.617,29.143,346.975,33.285,346.975z M40.784,268.985h71.991v62.992H40.784
				V268.985z"/>
			<path d="M189.265,253.987h-45.994c-4.141,0-7.499,3.357-7.499,7.499v77.99c0,4.142,3.358,7.499,7.499,7.499h45.994
				c4.141,0,7.499-3.357,7.499-7.499v-77.99C196.764,257.343,193.406,253.987,189.265,253.987z M181.766,331.977H150.77v-62.992
				h30.996V331.977z"/>
			<path d="M349.679,206.993h-72.86c-6.652,0-12.063,5.411-12.063,12.063v22.866c0,6.652,5.412,12.063,12.063,12.063h72.86
				c6.652,0,12.063-5.411,12.063-12.063v-22.866C361.742,212.404,356.33,206.993,349.679,206.993z M346.744,238.989h-66.991v-16.998
				h66.991V238.989z"/>
			<path d="M348.752,262.986h-71.008c-7.163,0-12.99,5.827-12.99,12.989v20.506c0,4.143,3.358,7.499,7.499,7.499
				c4.141,0,7.499-3.357,7.499-7.499v-18.498h66.991v116.985h-66.991v-68.491c0-4.142-3.358-7.499-7.499-7.499
				c-4.141,0-7.499,3.357-7.499,7.499v70.5c0,7.162,5.827,12.989,12.99,12.989h71.008c7.163,0,12.99-5.827,12.99-12.989V275.975
				C361.742,268.813,355.915,262.986,348.752,262.986z"/>
			<path d="M472.796,278.984h-33.133c-8.232,0-14.93,6.697-14.93,14.93v30.133c0,8.232,6.697,14.93,14.93,14.93h33.133
				c8.232,0,14.93-6.697,14.93-14.93v-30.133C487.726,285.681,481.029,278.984,472.796,278.984z M472.728,323.978h-32.996v-29.996
				h32.996V323.978z"/>
			<path d="M472.796,350.974h-33.133c-8.232,0-14.93,6.697-14.93,14.93v29.133c0,8.232,6.697,14.93,14.93,14.93h33.133
				c8.232,0,14.93-6.697,14.93-14.93v-29.133C487.726,357.671,481.029,350.974,472.796,350.974z M472.728,394.969h-32.996v-28.996
				h32.996V394.969z"/>
		</g>
	</g>
</g>
<g>
</g>
<g>
</g>
<g>
</g>
<g>
</g>
<g>
</g>
<g>
</g>
<g>
</g>
<g>
</g>
<g>
</g>
<g>
</g>
<g>
</g>
<g>
</g>
<g>
</g>
<g>
</g>
<g>
</g>
</svg>
